<svg width="587.95422" height="549.06287" xmlns="http://www.w3.org/2000/svg">
 <metadata id="metadata4989">image/svg+xml</metadata>
 <defs>
  <filter height="200%" width="200%" y="-50%" x="-50%" id="svg_1_blur">
   <feGaussianBlur stdDeviation="0.6" in="SourceGraphic"/>
  </filter>
 </defs>
 <g>
  <title>background</title>
  <rect fill="none" id="canvas_background" height="402" width="582" y="-1" x="-1"/>
 </g>
 <g>
  <title>Layer 1</title>
  <g id="g4991">
   <g id="Layer_4"/>
   <g id="g6152">
    <path fill="#974b45" d="m148.654766,330.908426c-23.769,9.308 -44.626,24.91306 -67.034,36.70606c-13.366,7.035 -38.78816,13.99588 -44.61816,29.54388c-2.169,5.783 -3.24315,10.14079 -3.24315,16.17879c0,3.391 1.60915,25.68985 3.56415,28.29685c0.945,1.261 15.88616,2.21394 17.35516,2.42294c6.229,0.89 14.33415,0.49985 20.56315,1.24785c6.711,0.805 13.492,1.118 20.206,1.924c23.814,2.858 48.66909,6.07769 72.37909,9.87169c13.369,2.139 50.20091,14.92449 62.97191,13.32849c2.879,-0.36 21.84885,-3.9216 27.72506,-6.27166c6.24102,-2.49596 12.77609,-7.70706 18.81709,-10.72706c12.494,-6.247 25.035,-15.49325 37.526,-21.73925c5.343,-2.671 11.08506,-6.50403 16.50006,-9.05203c2.349,-1.105 10.1694,-2.12603 12.4734,-3.27803c3.55,-1.775 7.31203,-4.108 10.97603,-5.774c3.046,-1.384 -1.75264,-4.24115 1.06936,-5.80815c2.235,-1.242 23.199,-12.934 23.413,-13.792c0.222,-0.886 -1.594,-1.484 -1.924,-1.925c-1.232,-1.642 -2.074,-4.769 -2.566,-6.735c-2.199,-8.795 -2.733,-17.612 -3.207,-26.621c-0.509,-9.66 -1.498,-24.265 -0.321,-33.677c0.375,-2.998 4.415,-16.59 3.207,-18.603c-0.795,-1.325 -12.977,-6.744 -15.074,-7.698c-8.051,-3.659 -15.146,-9.343 -22.772,-13.791c-2.814,-1.642 -5.864,-2.77 -8.66,-4.491c-7.995,-4.92 -14.681,-11.732 -22.131,-17.319c-0.851,-0.638 -1.759,0.082 -2.566,-0.321c-2.883,-1.442 -5.213,-5.313 -8.339,-6.094c-4.11,-1.028 -16.259,5.483 -20.527,7.056c-13.018,4.796 -26.084,9.893 -39.451,13.792c-15.319,4.468 -47.072,14.036 -58.374,25.338c-2.34,2.34 -2.497,4.535 -3.207,7.377c-0.526,2.103 -2.249,4.177 -3.208,6.094" id="path4846"/>
    <path fill="#974b45" d="m214.567916,458.962796c-4.67313,-6.19693 -2.373,20.048 -2.373,30.319c0,16.207 0.507,32.306 3.164,48.248c0.322,1.932 6.746,2.825 8.436,3.163c3.393,0.679 18.742,5.13 21.619,3.692c2.498,-1.249 5.071,-3.469 7.382,-5.01c1.762,-1.174 4.443,-1.73 5.801,-3.427c2.082,-2.604 -2.042,-18.25 -2.637,-21.619c-1.013,-5.74 -1.033,-11.636 -1.582,-17.401c-0.954,-10.023 -2.109,-19.946 -2.109,-30.056c0,-0.958 -0.8,-15.736 -1.318,-16.082c-1.307,-0.872 -4.445,0.954 -5.537,1.318c-9.558,3.186 -28.62574,-0.85343 -38.40974,1.10257" id="path4848"/>
    <path fill="#974b45" d="m51.204916,430.521796c-0.94,12.266 -4.58821,24.554 -5.00021,36.895c-0.48,14.4 2.10021,28.938 2.10021,43.34c0,1.936 -0.131,20.544 0.805,21.106c2.071,1.242 7.637,0.205 9.989,0.322c18.188,0.91 12.46,3.491 25.295,-9.344c2.19,-2.189 7.355,-5.791 8.378,-8.862c1.095,-3.284 -1.978,-9.145 -2.578,-12.244c-1.455,-7.523 -2.084,-15.395 -2.416,-23.04c-0.553,-12.719 -0.689,-25.463 -1.128,-38.184c-0.08,-2.319 1.212,-8.452 0,-10.472c-0.688,-1.146 -6.367,0.093 -7.25,0.161c-9.703,0.746 -19.608,1.611 -29.323,1.611" id="path4850"/>
    <path fill="#cecece" d="m299.527916,297.346796c-18.132,2.844 -32.094,18.182 -46.995,27.594c-14.235,8.99 -29.939,18.662 -42.396,30.036c-7.076,6.461 -17.271,17.523 -15.521,28.024c2.62606,22.81192 23.74306,24.92994 33.69506,28.24694c9.017,3.005 36.42194,2.79006 45.63594,0.64006c5.321,-1.241 10.838,-3.228 15.378,-6.323c7.839,-5.345 14.184,-12.611 21.413,-18.683c10.694,-8.984 37.576,-28.783 41.965,-42.827c5.836,-18.675 -15.562,-30.9 -29.174,-37.941c-6.123,-3.167 -19.584,-10.904 -26.588,-10.204c-2.179,0.218 -4.385,2.617 -6.467,3.449" id="path4852"/>
    <path fill="#7a7d8f" d="m368.061916,409.663796c-11.036,7.65 -24.012,13.327 -36.776,17.794c-3.588,1.256 -11.075,2.943 -11.566,7.86c-0.827,8.266 3.823,15.197 6.969,22.54c5.516,12.869 11.413,25.794 19.574,37.22c1.709,2.393 4.399,9.99421 7.86,9.41721c2.172,-0.362 16.536,-11.13621 16.756,-12.67921c0.371,-2.598 -0.72679,-8.83415 -1.70379,-11.15415c-2.417,-5.739 -6.72521,-10.23485 -7.93421,-16.27985c-0.409,-2.042 -2.702,-6.788 -2.373,-7.118c0.592,-0.592 21.969,-1.37 24.319,-1.631c12.053,-1.339 27.84,-4.064 39.445,-7.118c2.489,-0.655 13.03325,-0.0899 13.51625,-3.47288c1.269,-8.883 1.02163,-18.37692 -0.20097,-28.61009c-0.77242,-6.46512 0.17997,-5.05309 -0.095,-5.32809c-1.008,-1.008 -24.55525,0.48706 -27.01125,0.48706c-10.432,0 -20.635,-1.605 -30.992,-2.076c-3.062,-0.139 -8.33,-2.166 -11.27,-1.186c-2.551,0.851 -9.072,6.551 -11.122,8.601" id="path4854"/>
    <path fill="#7a7d8f" d="m340.331916,440.655796c-7.174,11.047 -15.208,22.441 -20.316,34.7c-2.85,6.84 -4.839,14.127 -8.156,20.76c-0.291,0.582 -1.331,2.749 -0.889,3.411c1.277,1.915 15.01788,8.47125 17.85788,8.91925c2.623,0.414 14.10012,3.11503 14.17212,3.06103c0.846,-0.634 3.702,-14.90428 4.152,-16.28128c3.11,-9.523 6.251,-18.994 9.046,-28.619c1.469,-5.062 3.812,-9.353 6.524,-13.791c0.191,-0.313 2.639,-3.117 2.373,-3.559c-2.184,-3.641 -20.788,-6.186 -25.802,-9.194" id="path4856"/>
    <path fill="#595959" d="m337.673916,511.993796c-6.98,0.671 -17.114,-6.57 -23.356,-3.942c-2.359,0.994 -24.00221,8.594 -22.30521,12.554c1.576,3.677 22.85021,7.47 26.53821,8.321c2.893,0.668 14.817,5.182 17.371,4.087c1.277,-0.547 1.752,-20.166 1.752,-23.502" id="path4858"/>
    <path fill="#595959" d="m371.832916,492.870796c-2.632,0.781 -4.569,2.786 -6.569,4.525c-1.556,1.353 -4.224,2.613 -5.401,4.38c-0.917,1.374 -0.046,4.966 -0.146,6.568c-0.2,3.195 -1.219,6.511 -1.898,9.635c-0.117,0.538 -1.431,5.657 -1.022,5.985c1.18,0.944 4.37,-1.31 5.401,-1.752c3.111,-1.333 25.03,-13.371 23.94,-16.641c-0.534,-1.602 -10.332,-10.77 -12.408,-12.846" id="path4860"/>
    <path fill="#ff8080" d="m490.388916,378.112796c0.152,2.063 -5.7764,4.023 -6.7614,5.829c-5.779,28.22192 -6.4816,21.518 -10.1006,33.101c-0.984,3.148 -1.209,6.433 -2.082,9.576c-2.42,8.713 -4.755,17.555 -7.495,26.23c-0.547,1.734 -4.034,14.668 -5.62,15.197c-3.59,1.196 -15.718,0 -19.777,0c-7.34,0 -14.733,0.262 -22.067,0c-10.867,-0.388 -21.544,-2.082 -32.476,-2.082c-3.4,0 -10.214,-1.346 -13.323,0.208c-0.727,0.364 -0.537,2.628 -0.625,3.331c-0.412,3.299 -1.104,10.442 0.625,13.324c1.14,1.9 4.921,1.457 6.662,1.457c11.172,0 22.344,0 33.516,0c1.856,0 8.139,-1.078 9.576,0c1.45,1.087 1.335,7.77 1.458,9.368c0.631,8.209 2.553,24.458 4.58,32.059c0.337,1.264 2.402,7.609 1.457,8.744c-1.123,1.347 -10.254,5.465 -15.197,10.409c-0.224,0.224 -2.63,2.65 -2.498,2.914c0.118,0.237 3.905,0 4.163,0c8.977,0 17.708,-0.445 26.647,-1.041c3.201,-0.213 6.37,-0.208 9.576,-0.208c1.18,0 3.912,1.119 3.539,0c-1.988,-5.965 -15.05657,-15.389 -16.37057,-19.985c-0.317,-1.112 -1.79543,-17.77 -1.53243,-20.401c0.216,-2.162 0.36,-21.695 0.833,-22.484c0.87,-1.451 9.123,-0.416 10.617,-0.416c16.693,0 34.03706,4.75331 50.74606,4.75331c0.935,0 1.83094,-3.53031 2.33894,-4.54531c2.937,-5.874 1.249,-34.838 1.249,-42.676c0,-15.172 1.663,-30.457 2.706,-45.591c0.087,-1.26 -2.61428,-13.30869 -3.32028,-14.19069c-0.722,-0.904 -10.29072,-4.33731 -11.87672,-4.33731" id="path4862"/>
    <path stroke="#000000" stroke-width="6.5" stroke-linecap="round" stroke-linejoin="round" fill="#cecece" d="m297.041916,298.418796c-14.256,2.118 -34.699,15.527 -46.506,24.055c-12.492,9.021 -24.415,18.673 -36.083,28.545c-7.279,6.16 -16.005,12.276 -19.885,21.329c-2.581,6.022 0.091,25.442 4.971,29.346c2.896,2.317 8.355,2.542 11.867,3.368c4.593,1.081 8.909,3.129 13.471,4.33c5.195,1.367 10.546,2.252 15.716,3.688c4.04,1.123 23.515,8.075 27.262,5.934c2.939,-1.68 5.497,-4.359 8.339,-6.254c4.649,-3.1 9.679,-5.605 14.273,-8.82c7.939,-5.558 15.103,-12.148 23.092,-17.641c3.02,-2.076 13.95,-12.507 16.357,-13.47" id="path4937"/>
    <path fill="#c39977" d="m293.007916,41.427796c-12.745,9.987 -24.726,21.602 -33.043,35.332c-1.822,3.007 -4.234,5.694 -5.941,8.757c-14.895,26.743 -14.47897,58.55806 -9.94797,87.78606c4.192,27.038 16.56837,52.06112 30.92415,72.20797c15.12213,21.22232 39.32279,46.72492 63.60982,48.69328c10.964,4.681 22.131,5.54069 33.726,8.59969c22.797,6.015 50.589,9.999 74.228,8.239c7.437,-0.554 15.013,-2.583 22.257,-4.242c5.734,-1.314 11.656,-2.363 17.177,-4.393c14.875,-5.468 27.977,-13.913 40.174,-23.596c8.089,-6.42 15.621,-12.975 22.152,-20.957c21.094,-25.783 32.81425,-52.283 35.53825,-84.623c0.761,-9.027 -1.57525,-18.582 -2.32125,-27.637c-0.604,-7.319 -3.124,-14.335 -4.751,-21.462c-3.252,-14.247 -7.489,-29.64 -17.331,-41.139c-5.203,-6.079 -23.928,-18.206 -31.346,-22.246c-6.468,-3.523 -12.697,-7.312 -19.433,-10.37c-21.786,-9.89 -56.321,-15.323 -80.24,-17.348c-32.399,-2.743 -65.136,-4.721 -97.236,1.168c-9.956,1.827 -19.417,2.903 -28.907,6.64c-3.669,1.444 -6.537,3.909 -10.031,5.467" id="path4865"/>
    <path fill="#ffd5b3" d="m304.842916,314.737796c-2.726,-0.02 -5.333,1.31 -7.506,2.88c-7.47,5.395 -1.783,16.775 4.189,13.789c2.662,-1.331 6.035,-13.545 2.706,-15.447c-2.032,-1.161 -5.56,0.466 -7.593,0.872" id="path4867"/>
    <path fill="#ffd5b3" d="m321.685916,349.122796c-3.969,-1.327 -8.629,-2.815 -12.305,0.087c-12.822,10.123 4.959,19.043 7.854,15.884c1.708,-1.863 6.018,-14.599 4.626,-17.106c-1.234,-2.22 -8.799,-1.703 -10.648,-1.134" id="path4869"/>
    <path fill="#3d2d28" d="m341.183916,12.067796c-27.63558,13.23504 -32.60753,13.686 -53.90442,29.39003c-2.063,3.181 -9.64758,5.77397 -9.64758,9.33797c0,14.762 23.77194,25.97046 37.47894,24.38546c4.413,-0.51 18.0037,-1.21285 15.32718,-5.55306c1.64032,1.3699 16.11912,5.71231 7.42903,-3.83706c0.159,0.138 -3.24915,4.40666 -2.62015,6.18066c0.583,1.644 2.228,2.806 3.518,4.006c8.413,7.82 19.668,10.599 31.887,9.539c12.016,-1.043 20.512,-9.826 25.948,-18.315c4.6312,-6.75956 1.84948,-7.97974 2.56291,-1.14645c2.57059,-6.9858 2.0542,-0.53348 4.91409,2.67345c6.449,7.121 13.91691,14.04715 24.33291,15.50515c4.846,0.678 12.60909,0.002 17.44909,-1.19715c9.863,-2.445 12.095,-14.359 12.095,-21.749c0,-0.19 -8.26864,1.95312 3.13625,8.02158c1.83312,8.83059 -1.56025,-4.77058 -0.71725,-3.63358c2.169,2.928 7.00521,10.56337 9.78121,13.09837c12.907,11.787 52.51279,6.52763 59.04879,-11.19037c5.464,-14.813 -7.44391,-18.31526 -20.15491,-26.07526c-12.722,-7.767 -29.35809,-21.19974 -44.05709,-25.24374c-11.741,-3.229 -23.339,-6.723 -35.405,-8.966c-6.989,-1.299 -14.007,-1.545 -21.111,-1.908c-29.789,-1.52 -49.437,-0.389 -77.846,8.013c-6.274,1.855 -11.60988,8.5984 -17.34388,11.5824" id="path4871"/>
    <path fill="#cecece" d="m232.144796,111.434736c-25.415,1.071 -49.71188,-1.35694 -74.98388,2.38706c-5.357,0.793 -10.663,2.038 -16.032,2.805c-19.421,2.775 -39.116,0.94975 -58.516,4.07875c-5.874,0.947 -19.20758,1.21891 -25.08358,2.02991c-18.13474,0.0279 -10.59145,1.27388 -23.70879,5.95919c-6.746,0.587 -16.43906,1.98915 -21.22506,7.57115c-16.785,19.583 -10.94357,38.453 -10.94357,62.925c0,9.959 -0.318,20.179 1.202,30.06c1.656,10.765 3.725,21.214 4.81,32.064c1.733,17.331 3.79,34.572 6.813,51.702c0.764,4.328 2.491,8.236 3.607,12.425c1.465,5.492 2.526,12.926 7.215,16.833c4.552,3.794 18.276,2.405 24.048,2.405c16.69,0 32.558,-2.608 48.897,-6.012c5.095,-1.061 10.447,-2.63 15.631,-3.206c6.896,-0.766 13.933,-1.637 20.841,-2.405c4.277,-0.475 8.921,0 13.226,0c0.535,0 10.24271,-11.35486 1.604,0c13.46101,-8.49171 13.39298,4.726 13.74698,5.611c1.99,4.976 3.51669,14.44221 -7.33498,17.635c1.24015,1.921 -6.759,6.895 -5.21,9.219c1.356,2.034 20.093,-2.32628 22.845,-2.32628c2.991,0 7.086,-2.55924 10.02,-3.53724c4.151,-1.384 9.55577,-0.56569 8.19777,-2.89269c-4.116,-7.056 -12.37149,-10.52864 -15.08949,-18.14164c-0.426,-1.191 0.0734,-3.68841 1.86349,-8.88775c1.93912,-6.97443 0.15669,-5.30622 1.28969,-5.54922c5.161,-1.106 4.55754,-1.82303 9.75054,-2.79703c7.387,-1.385 14.713,-2.85494 22.044,-4.42594c5.929,-1.271 12.156,-3.91721 18.036,-5.55021c6.486,-1.801 13.002,-3.883 19.639,-5.21c6.605,-1.321 26.668,-3.022 31.262,-7.615c2.464,-2.465 2.76115,-12.518 2.76115,-15.631c0,-6.238 1.3051,-11.975 -0.4269,-18.036c-0.554,-1.941 -1.62497,-5.23315 -2.01197,-7.17115c-0.565,-2.822 -2.84628,-4.74485 -4.73128,-7.25785c-0.935,-1.247 -5.026,-0.687 -7.615,-2.805c-8.702,-7.12 -13.822,-11.912 -18.837,-22.445c-9.032,-18.967 -12.238,-42.164 -13.227,-62.925c-0.699,-14.685 1.20531,-33.78721 7.92831,-47.23221" id="path4873"/>
    <path fill="#6b5fce" d="m242.134916,131.789796c0.292,7.472 -0.483,14.816 -0.483,22.251c0,7.267 -0.557,14.769 0,22.009c0.59,7.669 2.464,15.24 3.869,22.734c0.72,3.839 5.9934,6.77991 7.5154,10.43291c2.591,6.219 0.7576,13.89909 4.8196,19.31509c2.62,3.494 8.025,6.661 9.432,10.884c1.522,4.565 1.21,9.984 1.21,14.753c0,2.485 1.031,7.931 -0.242,10.158c-5.425,9.493 -36.149,8.866 -45.953,9.916c-8.093,0.867 -16.422,1.42 -24.427,2.902c-8.988,1.665 -17.998,3.747 -27.088,4.837c-7.145,0.858 -14.403,1.401 -21.525,2.419c-19.115,2.731 -38.426,4.143 -57.562,7.014c-5.2,0.78 -30.624,6.004 -34.585,3.628c-2.67,-1.603 -2.573,-8.703 -3.144,-11.368c-3.404,-15.886 -7.45634,-31.934 -7.45634,-48.129c0,-10.242 1.12509,-20.482 1.41809,-30.715c0.252,-8.815 0.43291,-16.78494 1.00091,-25.57894c0.249,-3.872 -0.0141,-23.79794 6.73034,-28.11306c3.06185,-1.959 24.238,-4.354 28.055,-4.354c18.39,0 36.939,-3.287 55.143,-5.562c16.457,-2.057 32.988,-3.189 49.339,-5.805c17.567,-2.811 35.676,-6.772 53.45,-6.772" id="path4875"/>
    <path fill="#7a8f7d" d="m367.160916,305.783796c0.005,1.3 -0.003,2.656 -0.342,3.925c-1.25,4.69 -3.328,9.132 -4.607,13.823c-3.323,12.182 -6.222,24.483 -8.874,36.86c-2.755,12.854 -7.02421,24.56891 -8.20521,37.56291c-2.83822,-2.10925 -1.168,7.00409 -0.341,7.83109c2.982,2.982 20.07321,3.273 24.24621,3.754c21.53,2.485 43.572,1.024 65.189,1.024c2.091,0 8.641,1.18 10.41,0c1.735,-1.157 1.194,-9.636 1.194,-11.263c0,-16.714 1.878,-33.301 1.878,-50.001c0,-9.266 1.095,-18.558 1.535,-27.816c0.071,-1.479 1.299,-10.898 0.512,-11.946c-0.726,-0.968 -13.74,-0.06 -15.358,0c-17.023,0.631 -34.805,0.492 -51.708,-1.536c-2.157,-0.259 -14.757,-1.476 -15.871,-2.218" id="path4877"/>
    <path fill="#7a8f7d" d="m401.290916,335.988796c-5.081,6.728 -15.396,22.541 -23.038,25.598c-3.467,1.387 -7.512,-3.133 -10.41,-4.437c-8.937,-4.022 -19.08,-5.456 -28.669,-6.826c-1.352,-0.193 -10.843,-1.917 -11.605,-1.536c-1.816,0.908 -6.797,19.091 -5.461,19.625c3.398,1.359 8.472,1.225 12.117,2.048c13.646,3.081 27.564,6.352 41.468,8.021c1.413,0.169 7.013,1.761 8.362,0.682c2.097,-1.678 1.854,-9.918 2.048,-12.116c0.64,-7.25 0.248,-21.481 2.56,-27.646" id="path4879"/>
    <path fill="#7a8f7d" d="m365.624916,330.698796c0.043,-0.326 1.738,0.138 1.365,0.512c-0.568,0.568 -21.967,-3.608 -24.403,-4.096c-3.493,-0.698 -6.964,-1.527 -10.41,-2.389c-5.523,-1.381 -20.458,-5.993 -20.649,-5.802c-0.414,0.414 -1.96625,-3.26576 -2.29125,-2.77876c-1.211,1.815 -4.08305,16.87057 -1.52605,18.85857c8.375,6.514 31.1713,3.67219 41.7023,5.25119c1.981,0.298 16.554,2.935 18.089,1.707c1.455,-1.164 1.261,-12.387 3.242,-15.359" id="path4881"/>
    <path fill="#fffcaf" d="m406.044916,235.820796l0,0" id="path4883"/>
    <path fill="#fffcaf" d="m457.219916,178.652796l0,0" id="path4885"/>
    <g id="g4889">
     <path fill="#ff8080" d="m409.754916,263.478796c-3.335,0.093 -6.788,-0.925 -10.108,-0.261c-6.654,1.331 -14.225,8.51 -11.347,15.912c4.059,10.437 21.313,8.09 29.02,4.37c2.127,-1.027 3.718,-2.807 4.891,-4.826c3.735,-6.434 -3.454,-12.706 -9.26,-14.738c-2.965,-1.038 -6.095,-0.979 -9.195,-0.979" id="path4891"/>
     <path fill-opacity="0" stroke="#000000" stroke-linecap="round" stroke-linejoin="round" d="m409.754916,263.478796c-3.335,0.093 -6.788,-0.925 -10.108,-0.261c-6.654,1.331 -14.225,8.51 -11.347,15.912c4.059,10.437 21.313,8.09 29.02,4.37c2.127,-1.027 3.718,-2.807 4.891,-4.826c3.735,-6.434 -3.454,-12.706 -9.26,-14.738c-2.965,-1.038 -6.095,-0.979 -9.195,-0.979" id="path4893"/>
    </g>
    <path stroke="#000000" stroke-width="6.5" stroke-linecap="round" stroke-linejoin="round" fill="#c39977" d="m324.601916,347.016796c-6.855,-0.758 -15.492,-3.625 -20.475,3.17c-1.751,2.388 -2.614,4.528 -2.313,7.539c0.553,5.532 11.981,9.385 16.448,10.023" id="path4915"/>
    <path fill-opacity="0" stroke="#000000" stroke-width="6.5" stroke-linecap="round" stroke-linejoin="round" d="m410.124916,3.499796c-35.151,-1.121 -69.424,5.758 -100.214,23.077c-8.967,5.044 -17.322,10.051 -24.659,17.388c-14.077,14.077 -31.962,39.565 -37.619,58.801c-8.005,27.213 -8.063,72.233 0.948,99.266c6.581,19.744 26.234,49.99 42.046,63.543c4.782,4.099 8.099,9.511 13.277,13.277c15.564,11.319 33.773,18.121 52.479,22.13c7.39,1.583 14.603,5.003 22.129,6.006c4.753,0.634 9.488,1.582 14.226,2.529c7.162,1.433 15.163,0.949 22.446,0.949c19.844,0 39.137,-0.02 58.168,-6.639c3.506,-1.219 6.876,-2.978 10.433,-4.11c3.466,-1.103 6.749,-2.034 10.116,-3.477c32.08,-13.749 74.171,-57.313 84.724,-90.731c5.598,-17.726 6.849,-37.738 5.69,-56.272c-0.961,-15.375 -15.045,-50.197 -24.342,-62.594c-8.568,-11.424 -44.642,-40.944 -57.22,-48.685c-7.909,-4.867 -16.67,-8.176 -24.975,-12.329c-18.623,-9.311 -53.46843,-22.36997 -74.40543,-22.36997" id="path4897"/>
    <path fill-opacity="0" stroke="#000000" stroke-width="6.5" stroke-linecap="round" stroke-linejoin="round" d="m281.897916,49.249796c0.273,2.189 -0.394,4.55 0,6.717c2.664,14.653 25.585,20.856 37.948,17.63c5.004,-1.305 7.25775,-0.48075 11.80875,-2.90875c0.014,-0.007 5.23925,-4.34325 5.31825,-4.31125c0.908,0.363 0.119,3.305 0.336,4.03c1.116,3.718 4.23,6.165 7.388,8.06c7.848,4.708 26.147,6.625 34.926,4.869c2.812,-0.562 5.985,-2.355 8.396,-3.862c5.86,-3.662 10.243,-12.762 11.754,-13.769c0.589,-0.392 0.32,1.401 0.671,2.015c1.117,1.954 3.114,4.121 4.702,5.709c4.613,4.614 11.925,8.928 18.135,10.915c9.443,3.022 23.583,3.133 30.392,-5.038c2.164,-2.597 4.664,-11.212 5.373,-11.921c0.166,-0.166 4.969,5.64 5.373,6.044c3.951,3.951 9.937,7.248 15.28,8.732c9.099,2.527 19.514,4.72 29.049,3.358c4.179,-0.597 7.41,-2.822 10.747,-5.205c7.324,-5.232 11.418,-10.805 11.418,-19.814" id="path4899"/>
    <path fill-opacity="0" stroke="#000000" stroke-width="6.5" stroke-linecap="round" stroke-linejoin="round" d="m308.313916,176.492796c-1.39,-1.296 -1.696,-3.312 -2.178,-5.117c-1.731,-6.494 2.401,-10.336 6.859,-5.878c3.509,3.509 1.624,13.516 -4.355,12.519c-6.174,-1.029 -5.007,-15.287 1.198,-12.628c4.004,1.716 2.822,13.583 -1.742,11.757c-3.564,-1.426 -3.858,-15.319 3.048,-11.866c1.645,0.823 2.311,2.073 2.504,3.81" id="path4901"/>
    <path fill-opacity="0" stroke="#000000" stroke-width="6.5" stroke-linecap="round" stroke-linejoin="round" d="m371.781916,184.548796c-1.757,-1.989 -3.152,-4.429 -3.593,-7.076c-2.182,-13.091 14.525,-11.41 13.608,3.266c-0.183,2.932 -5.546,6.811 -8.491,5.225c-5.436,-2.927 -6.311,-16.675 2.177,-15.132c3.582,0.651 4.893,9.884 2.504,11.975c-5.064,4.431 -6.706,-12.576 -1.96,-9.253c4.238,2.966 -0.326,13.555 -0.326,3.048" id="path4903"/>
    <path stroke="#000000" stroke-width="6.5" stroke-linecap="round" stroke-linejoin="round" fill="#c37791" d="m387.202916,269.904796c1.776,-6.132 11.717,-7.779 17.129,-8.05c7.533,-0.376 17.64,1.702 18.908,10.577c0.226,1.583 0.361,3.746 -0.28,5.242c-3.798,8.862 -17.822,12.808 -26.678,10.203c-7.099,-2.088 -13.45753,-16.05631 -8.08953,-19.41131" id="path4905"/>
    <path stroke="#000000" stroke-width="6.5" stroke-linecap="round" stroke-linejoin="round" fill="#c39977" d="m308.752916,315.233796c-2.965,0.221 -6.132,-0.865 -9.081,-0.171c-4.918,1.157 -10.82375,5.9937 -8.24175,12.0177c2.53,5.904 8.59375,7.8463 14.06775,8.6283" id="path4917"/>
    <path fill="#7a8f7d" stroke="#000000" stroke-width="6.5" stroke-linecap="round" stroke-linejoin="round" d="m395.918916,342.662796c-4.363,3.063 -11.567,13.791 -15.15,16.179c-0.985,0.657 -3.805,0.162 -4.853,0c-8.125,-1.249 -15.826,-4.524 -23.682,-6.619c-8.834,-2.355 -18.639,-2.731 -27.211,-5.589c-0.478,-0.159 -2.693,8.438 -2.795,9.561c-0.097,1.071 -3.47293,11.83714 -3.00993,12.11514c3.112,1.867 9.20493,1.78286 12.71793,2.59386c10.304,2.377 20.645,4.646 30.889,7.207c4.695,1.174 15.093,4.484 19.709,3.824c4.988,-0.712 16.324,-10.941 21.622,-14.12" id="path4907"/>
    <path fill-opacity="0" stroke="#000000" stroke-width="6.5" stroke-linecap="round" stroke-linejoin="round" d="m364.442916,306.184796c-3.171,14.334 -6.832,29.013 -9.708,43.391" id="path4909"/>
    <path fill-opacity="0" stroke="#000000" stroke-width="6.5" stroke-linecap="round" stroke-linejoin="round" d="m349.586916,377.227796c0.506,8.981 -5.663,16.549 -6.619,25.152c-0.06,0.541 -1.421,4.983 -1.03,5.296c2.238,1.79 7.971,0.728 10.59,0.882c12.461,0.733 25.064,-0.447 37.508,0.441c6.224,0.445 12.432,1.349 18.68,1.765c8.729,0.582 21.73,-0.89 29.859,0.736c1.122,0.224 6.648,1.589 7.354,0.882c0.938,-0.937 0.705,-27.276 0.883,-30.3c0.377,-6.414 0.379,-12.852 0.735,-19.268c0.183,-3.281 0.983,-6.468 1.324,-9.708c1.491,-14.161 3.089,-28.94 3.089,-43.097" id="path4911"/>
    <path fill-opacity="0" stroke="#000000" stroke-width="6.5" stroke-linecap="round" stroke-linejoin="round" d="m358.183916,329.454796c-13.699,-3.62 -27.032,-8.968 -40.95,-11.994c-1.242,-0.27 -7.052,-2.665 -8.224,-1.884c-0.041,0.027 -2.13365,5.41324 -1.97,10.537c-0.203,1.319 -2.104,7.382 -1.371,8.481c0.855,1.283 7.312,1.45 8.738,1.628c7.344,0.918 14.848,3.099 22.103,4.626c5.998,1.263 12.103,1.757 18.076,3.084" id="path4913"/>
    <path fill-opacity="0" stroke="#000000" stroke-width="6.5" stroke-linecap="round" stroke-linejoin="round" d="m436.317916,414.419796c0.378,7.163 3.383,28.828 -1.041,34.359c-0.133,0.165 -13.059,2.076 -13.882,2.198c-16.858,2.497 -33.616,5.522 -50.44,8.213c-2.352,0.377 -11.316,0.032 -12.957,2.083c-0.4,0.5 -2.521,11.035 -3.008,12.494c-3.926,11.778 -8.671,23.805 -11.106,35.979c-0.369,1.844 -2.926,1.156 -4.512,1.156c-6.442,0 -19.407,-5.755 -25.798,-8.213c-0.794,-0.306 -6.635,-2.421 -6.363,-3.24c0.544,-1.629 2.054,-3.252 2.777,-4.858c4.961,-11.025 9.905,-21.951 15.155,-32.856c1.298,-2.695 10.653,-21.496 12.378,-22.79c0.746,-0.559 4.651,-0.387 5.669,-0.578c5.119,-0.96 10.262,-2.46 15.271,-3.934c11.48,-3.376 24.773,-9.67 36.441,-11.337" id="path4919"/>
    <path fill-opacity="0" stroke="#000000" stroke-width="6.5" stroke-linecap="round" stroke-linejoin="round" d="m362.625916,410.832796c-12.566,4.797 -25.079,11.348 -37.02,17.816c-1.494,0.809 -5.666,1.846 -6.479,3.471c-1.995,3.99 4.349,18.17 5.669,22.79" id="path4921"/>
    <path fill-opacity="0" stroke="#000000" stroke-width="6.5" stroke-linecap="round" stroke-linejoin="round" d="m316.518916,504.554796c-3.641,1.222 -7.386,2.833 -10.912,4.531c-1.924,0.926 -17.632,8.461 -16.274,10.633c2.925,4.68 30.959,11.16 36.987,12.021c1.2,0.172 8.05,2.602 9.062,1.387c2.182,-2.619 4.016,-17.068 4.716,-21.267" id="path4923"/>
    <path fill-opacity="0" stroke="#000000" stroke-width="6.5" stroke-linecap="round" stroke-linejoin="round" d="m349.251916,497.249796c8.788,12.383 8.692,6.834 17.938,-1.572c1.409,-1.28 6.196,-4.965 6.196,-5.733c0,-0.467 -1.435,-1.74 -1.757,-2.127" id="path4925"/>
    <path fill-opacity="0" stroke="#000000" stroke-width="6.5" stroke-linecap="round" stroke-linejoin="round" d="m368.761916,468.584796c-0.152,1.98 -1.236,15.564 -0.185,16.09c1.505,0.752 14.444,0.462 17.292,0.462" id="path4927"/>
    <path fill-opacity="0" stroke="#000000" stroke-width="6.5" stroke-linecap="round" stroke-linejoin="round" d="m362.936916,460.909796c1.09,4.251 3.189,8.598 5.178,12.576" id="path4929"/>
    <path fill-opacity="0" stroke="#000000" stroke-width="6.5" stroke-linecap="round" stroke-linejoin="round" d="m358.838916,504.998796c-0.83,3.011 -7.186,23.13 -6.226,24.09c1.455,1.455 11.433,-6.879 13.128,-7.985c3.519,-2.295 19.147,-10.343 20.234,-13.601c0.795,-2.386 -10.27,-15.102 -12.452,-17.595" id="path4931"/>
    <path fill-opacity="0" stroke="#000000" stroke-width="6.5" stroke-linecap="round" stroke-linejoin="round" d="m368.575916,466.897796c14.217,0.348 28.517,1.049 42.759,1.049c12.546,0 25.077,0.525 37.644,0.525c1.245,0 12.222,0.572 12.985,0c0.152,-0.114 4.283,-14.289 4.591,-15.347c5.288,-18.129 9.926,-36.433 14.69,-54.695c0.7,-2.68 4.698,-20.174 5.903,-21.379c1.441,-1.442 14.028,2.7 15.083,4.459c0.404,0.673 0.132,2.249 0.132,3.017c0,11.26 0.388,22.588 0,33.84c-0.51,14.774 -1.229,29.803 -0.525,44.596c0.195,4.09 0.656,8.089 0.656,12.198c0,1.951 1.466,9.813 0,11.28c-2.11,2.109 -16.769,0.918 -19.937,0.918c-15.54,0 -30.815,-1.324 -46.301,-2.098c-17.831,-0.892 -35.78,-0.656 -53.645,-0.656" id="path4933"/>
    <path fill-opacity="0" stroke="#000000" stroke-width="6.5" stroke-linecap="round" stroke-linejoin="round" d="m422.280916,485.981796c0.268,12.196 0.738,24.516 2.644,36.585c0.336,2.13 2.089,7.526 1.279,9.552c-0.733,1.834 -11.757,8.435 -14.071,9.977c-0.422,0.282 -3.971,2.401 -3.752,2.729c0.288,0.433 14.281,0.023 15.094,-0.085c8.137,-1.085 16.679,-0.426 24.902,-0.426c0.576,0 8.939,0.179 8.869,-0.171c-0.7,-3.501 -16.698,-10.022 -17.567,-12.195c-1.222,-3.054 -0.70903,-16.2584 -0.90403,-19.7644c-0.588,-10.581 0.47703,-16.0746 0.47703,-26.6286" id="path4935"/>
    <path fill-opacity="0" stroke="#000000" stroke-width="6.5" stroke-linecap="round" stroke-linejoin="round" d="m297.856916,298.724796c4.716,0.454 9.371,2.834 13.668,4.84c6.233,2.908 13,5.157 18.763,8.999c5.558,3.706 10.774,8.343 16.215,11.97" id="path4939"/>
    <path fill-opacity="0" stroke="#000000" stroke-width="6.5" stroke-linecap="round" stroke-linejoin="round" d="m304.095916,347.016796c-11.787,5.852 -22.843,13.302 -33.957,20.374c-2.546,1.621 -8.245,4.646 -9.055,7.884c-1.123,4.496 8.895,13.506 13.271,12.88c5.91,-0.844 25.424,-20.926 32.239,-23.652" id="path4941"/>
    <path fill-opacity="0" stroke="#000000" stroke-width="6.5" stroke-linecap="round" stroke-linejoin="round" d="m218.565916,365.034796c1.70255,1.98 13.54805,8.6671 13.54805,8.6671c3.24035,-0.0338 11.65,-10.13464 12.04295,-14.3441c0.27288,-2.9232 -5.14,-2.843 -7.686,-4.018c-5.318,-2.454 -2.201,-5.75 -8.298,-0.524c-1.376,1.18 -3.029,2.16 -4.192,3.581c-1.532,1.872 -2.807,3.737 -4.192,5.677" id="path4943"/>
    <path fill-opacity="0" stroke="#000000" stroke-width="6.5" stroke-linecap="round" stroke-linejoin="round" d="m247.824916,342.937796c1.193,2.049 6.066,11.68 9.345,10.743c2.007,-0.574 5.116,-4.601 6.9,-5.939c1.466,-1.1 5.263,-2.95 5.852,-4.717c0.763,-2.288 -3.339,-5.195 -4.542,-6.638c-0.847,-1.017 -1.791,-2.893 -3.144,-3.231c-1.841,-0.461 -12.164,6.752 -13.712,8.559" id="path4945"/>
    <path fill-opacity="0" stroke="#000000" stroke-width="6.5" stroke-linecap="round" stroke-linejoin="round" d="m274.026916,322.674796c0.637,2.541 2.598,4.479 4.105,6.55c4.051,5.571 4.931,2.355 9.695,-1.048" id="path4947"/>
    <path fill-opacity="0" stroke="#000000" stroke-width="6.5" stroke-linecap="round" stroke-linejoin="round" d="m273.589916,320.578796c2.193,-1.826 15.286,-11.778 17.556,-10.481c1.867,1.067 3.077,3.225 4.716,4.629" id="path4949"/>
    <path fill-opacity="0" stroke="#000000" stroke-width="6.5" stroke-linecap="round" stroke-linejoin="round" d="m279.092916,343.024796c1.026,-1.16 2.393,-1.795 3.668,-2.62c0.941,-0.609 3.651,-3.118 4.978,-2.62c1.311,0.491 6.289,6.287 5.765,7.598c-0.441,1.103 -5.272,2.864 -6.376,3.581c-0.437,0.285 -3.904,3.117 -4.542,2.62c-2.029,-1.577 -2.896,-5.805 -4.454,-7.947" id="path4951"/>
    <path fill-opacity="0" stroke="#000000" stroke-width="6.5" stroke-linecap="round" stroke-linejoin="round" d="m203.416916,376.010796c19.385,1.046 41.356,10.944 53.822,26.287c3.755,4.621 6.625,10.133 9.248,15.378" id="path4953"/>
    <path fill-opacity="0" stroke="#000000" stroke-width="6.5" stroke-linecap="round" stroke-linejoin="round" d="m35.603196,126.096796c-0.591,9.214 -6.81025,13.1386 -7.89828,27.433c-3.805,50.252 -5.783,114.538 8.15,163.009c1.427,4.963 6.177,22.795 8.912,26.378c1.297,1.701 4.327,2.93 6.384,3.206c13.374,1.798 49.067,-5.16 63.418,-8.399c8.737,-1.972 17.231,-4.973 25.969,-5.862c5.531,-0.563 12.054,-0.676 17.389,-2.32c0.297,-0.091 3.926,-0.848 4.093,-0.585c0.613,0.967 -0.28,3.568 -0.109,4.756c0.644,4.501 1.171,10.168 2.729,14.339c0.169,0.453 0.742,2.614 0.27,3.066c-0.569,0.543 -2.612,0.631 -3.429,1.281c-2.081,1.654 -17.949,11.639 -16.983,14.226c0.206,0.551 9.822,0.4 10.872,0.25c1.418,-0.203 2.71,-0.95 4.108,-1.265c7.327,-1.654 14.687,-2.05 21.852,-4.257c1.677,-0.516 13.768,-3.512 14.371,-4.089c0.894,-0.853 -3.392,-1.622 -4.37,-2.14c-2.63,-1.391 -5.732,-2.433 -8.06,-4.264c-5.033,-3.958 -5.455,-13.67 -6.342,-19.861c-0.095,-0.664 -0.907,-4.713 0.118,-5.096c2.919,-1.091 6.804,-0.984 9.891,-1.472c1.702,-0.27 3.437,-1.283 5.135,-1.582c5.338,-0.94 10.748,-1.758 16.038,-2.691c3.283,-0.578 6.322,-2.53 9.591,-3.178c9.208,-1.826 18.426,-4.329 27.675,-6.163c6.447,-1.277 13.573,-2.036 19.822,-4.643c3.178,-1.325 6.273,-3.169 9.615,-4.198c2.232,-0.687 7.446,-1.432 8.919,-3.534c0.979,-1.399 0.868,-8.2 0.913,-10.176c0.146,-6.345 0.932,-13.04 0.446,-19.366c-0.282,-3.664 -1.88,-6.975 -1.797,-10.578" id="path4955"/>
    <path fill-opacity="0" stroke="#000000" stroke-width="6.5" stroke-linecap="round" stroke-linejoin="round" d="m34.518916,125.481796c4.385,-1.004 8.641,-2.848 13.227,-3.307c10.704,-1.07 21.474,-1.262 32.202,-2.156c31.879,-2.657 63.631,-5.047 95.603,-6.326c20.409,-0.816 48.197,-4.123 68,-1.294" id="path4957"/>
    <path fill-opacity="0" stroke="#000000" stroke-width="6.5" stroke-linecap="round" stroke-linejoin="round" d="m242.727916,130.091796c-7.487,0.262 -15.018,-0.374 -22.499,0c-7.359,0.368 -14.643,1.789 -21.958,2.52c-15.926,1.593 -32.023,2.061 -47.876,4.5c-7.357,1.132 -14.902,1.393 -22.319,2.16c-16.148,1.67 -32.1,5.083 -48.236,7.019c-7.185,0.862 -24.703,0.555 -28.798,7.38c-3.911,6.519 -3.35,23.105 -3.599,30.597c-0.388,11.635 -1.08,23.272 -1.08,34.918c0,20.182 0.79,40.003 3.779,59.935c0.644,4.292 0.9,13.972 5.04,16.559c8.224,5.14 40.857,-2.189 51.116,-3.42c15.086,-1.81 30.105,-4.311 45.177,-6.119c8.77,-1.053 17.729,-1.227 26.458,-2.52c6.685,-0.991 13.165,-3.044 19.798,-4.32c11.261,-2.165 22.482,-4.497 33.837,-6.119c9.806,-1.401 20.001,-2.895 29.878,-3.6c1.225,-0.088 4.028,0.306 4.86,-1.08c2.551,-4.252 1.62,-21.823 1.62,-27.718" id="path4959"/>
    <path fill-opacity="0" stroke="#000000" stroke-width="6.5" stroke-linecap="round" stroke-linejoin="round" d="m36.682916,126.035796c-6.369,0.011 -20.167,1.334 -23.961,7.026c-5.511,8.267 -5.209,19.855 -6.306,29.365c-1.498,12.989 -2.087,26.032 -2.522,39.095c-1.321,39.62 -1.73,67.63 10.269,106.292c2.099,6.763 9.595,30.546 15.313,35.311c4.753,3.961 12.817,3.603 18.737,3.603" id="path4961"/>
    <path fill-opacity="0" stroke="#000000" stroke-width="6.5" stroke-linecap="round" stroke-linejoin="round" d="m146.037916,334.388796c-5.284,2.264 -10.547,4.781 -15.74,7.274c-5.432,2.607 -10.496,6.217 -15.74,9.182c-3.539,2 -7.365,3.477 -10.971,5.366c-13.122,6.873 -26.205,14.087 -38.992,21.583c-7.589,4.448 -23.199,12.074 -28.38,19.198c-3.816,5.247 -2.027,20.304 -2.027,26.948c0,3.665 -0.311,15.984 3.339,18.722c1.483,1.112 6.911,0.834 8.704,0.954c10.58,0.705 21.27,0.405 31.838,1.311c15.501,1.329 30.977,2.641 46.386,4.651c9.474,1.235 18.75,3.719 28.141,5.127c9.117,1.368 18.83,2.365 27.664,4.889" id="path4963"/>
    <path fill-opacity="0" stroke="#000000" stroke-width="6.5" stroke-linecap="round" stroke-linejoin="round" d="m181.547916,459.593796c18.48,5.173 40.252,6.747 57.522,15.912" id="path4965"/>
    <path fill-opacity="0" stroke="#000000" stroke-width="6.5" stroke-linecap="round" stroke-linejoin="round" d="m240.267916,476.480796c21.887,-12.54 44.954,-24.076 65.764,-37.949c3.523,-2.349 7.965,-3.995 11.428,-6.469" id="path4967"/>
    <path fill-opacity="0" stroke="#000000" stroke-width="6.5" stroke-linecap="round" stroke-linejoin="round" d="m236.062916,448.989796c0.351,8.791 0.826,18.127 4.097,26.305" id="path4969"/>
    <path fill-opacity="0" stroke="#000000" stroke-width="6.5" stroke-linecap="round" stroke-linejoin="round" d="m236.601916,449.528796c26.858,-9.858 51.794,-24.518 77.624,-36.872c9.624,-4.603 20.033,-8.518 29,-14.123" id="path4971"/>
    <path fill-opacity="0" stroke="#000000" stroke-width="6.5" stroke-linecap="round" stroke-linejoin="round" d="m236.431916,450.384796c-20.323,-1.499 -39.925,-8.809 -59.643,-13.738c-22.389,-5.597 -45.14,-9.659 -67.517,-15.413c-24.522,-6.306 -48.487,-14.635 -73.046,-20.775" id="path4973"/>
    <path fill-opacity="0" stroke="#000000" stroke-width="6.5" stroke-linecap="round" stroke-linejoin="round" d="m228.939916,472.962796c0.129,12.586 -0.878,25.311 0.44,37.841c0.62,5.89 2.586,11.687 2.934,17.6c0.132,2.254 2.04,16.038 3.667,17.013c3.028,1.818 22.366,-7.039 23.467,-9.24c0.286,-0.572 -4.305,-18.034 -4.694,-20.24c-1.744,-9.885 -3.638,-20.067 -4.547,-30.067c-0.353,-3.886 -0.42,-8.116 -1.173,-11.88" id="path4975"/>
    <path fill-opacity="0" stroke="#000000" stroke-width="6.5" stroke-linecap="round" stroke-linejoin="round" d="m209.286916,466.949796c-0.738,19.513 0.306,38.811 2.933,58.081c0.433,3.172 0.713,13.389 2.347,15.84c1.439,2.158 17.66,4.94112 21.12,4.94112" id="path4977"/>
    <path fill-opacity="0" stroke="#000000" stroke-width="6.5" stroke-linecap="round" stroke-linejoin="round" d="m47.320916,446.778796c-0.408,13.512 -2.558,26.72 -2.558,40.291c0,14.203 -0.075,27.038 1.492,41.144c0.282,2.536 0.289,5.911 3.198,6.396c1.529,0.254 18.842,-0.164 18.973,-0.427c1.408,-2.816 -2.075,-12.901 -2.345,-16.415c-1.471,-19.119 -2.765,-39.497 -0.64,-58.624c0.387,-3.48 -0.365,-11.573 2.132,-14.07" id="path4979"/>
    <path fill-opacity="0" stroke="#000000" stroke-width="6.5" stroke-linecap="round" stroke-linejoin="round" d="m70.344916,534.609796c2.77,-3.063 20.121,-13.761 20.891,-16.842c1.571,-6.284 -3.641,-18.099 -4.263,-24.942c-1.402,-15.415 -2.345,-30.7 -2.345,-46.26" id="path4981"/>
    <path fill-opacity="0" stroke="#000000" stroke-width="6.5" stroke-linecap="round" stroke-linejoin="round" d="m520.386916,170.489796c7.181,-2.942 18.555,-7.185 24.703,0.191c0.821,0.986 2.162,2.138 2.489,3.447c2.629,10.515 -3.14,19.791 -13.596,22.405" id="path4983"/>
   </g>
  </g>
  <text filter="url(#svg_1_blur)" font-weight="normal" transform="rotate(-6 162.2265625000003,212.99999999999991) " style="cursor: move;" xml:space="preserve" text-anchor="start" font-family="Oswald, sans-serif" font-size="29" id="svg_1" y="223" x="99" stroke="#000" fill="#000000">Find User</text>
 </g>
</svg>